<svg xmlns="http://www.w3.org/2000/svg" viewBox="0.5 0.8 31.6 31.6" fill="currentcolor"><path d="M16.3.8C7.6.8.5 7.8.5 16.5s7.1 15.8 15.8 15.8 15.8-7.1 15.8-15.8S25 .8 16.3.8zm12.5 21.8h-6c.3-1.6.5-3.3.5-5.1h6.9c-.1 1.8-.6 3.5-1.4 5.1zm-24 1.8h5.4c.6 2.3 1.5 4.3 2.6 5.6-3.3-.9-6.1-2.9-8-5.6zm-2.4-6.9h6.8c0 1.8.2 3.5.5 5.1h-6C3 21 2.5 19.3 2.4 17.5zm1.3-7h6c-.3 1.6-.5 3.3-.5 5.1H2.4c.1-1.8.6-3.5 1.3-5.1zm24.1-1.8h-5.4c-.6-2.4-1.5-4.3-2.6-5.6 3.3.8 6.1 2.8 8 5.6zM16.3 30.1c-1.5 0-3.2-2.1-4.2-5.7h8.4c-1 3.6-2.7 5.7-4.2 5.7zm0-27.1c1.5 0 3.2 2.2 4.2 5.7h-8.4c1-3.6 2.7-5.7 4.2-5.7zm5.2 12.6H11.1c.1-1.9.2-3.6.6-5.1H21c.2 1.5.4 3.3.5 5.1zm-.6 7h-9.3c-.3-1.5-.5-3.2-.6-5.1h10.4c0 1.8-.2 3.5-.5 5.1zM12.8 3.1c-1.1 1.3-2 3.2-2.6 5.6H4.8c1.9-2.8 4.7-4.8 8-5.6zm7 26.9c1.1-1.3 2-3.2 2.6-5.6h5.4c-1.9 2.7-4.7 4.7-8 5.6zm3.5-14.4c0-1.8-.2-3.5-.5-5.1h6c.8 1.6 1.2 3.3 1.3 5.1h-6.8z"/></svg>